<svg xmlns="http://www.w3.org/2000/svg" width="612" height="792"><path fill="#B2B2B2" d="M328.688 235l-82.688 29.1 13.066 108.335 69.71 38.314 70.069-38.834 13.062-108.331-83.219-28.584zm0 0"/><path fill="#575757" d="M403.66 269.846l-75.164-25.631v157.381l62.99-34.861 12.174-96.889zm0 0"/><path fill="#676767" d="M255.279 270.308l11.196 96.889 62.019 34.398v-157.384l-73.215 26.097zm0 0"/><path fill="#F2F2F2" d="M345.918 322.493l-17.285-36.097-15.218 36.097h32.503zm6.59 15.179h-45.819l-10.251 25.64-19.067.352 51.125-113.734 52.908 113.734h-17.674l-11.222-25.992zm0 0"/><path fill="#B2B2B2" d="M328.496 249.929l.136 36.467 17.268 36.125h-17.365l-.038 15.127 24.012.023 11.223 25.996 18.244.339-53.48-114.077zm0 0"/></svg>