<svg xmlns="http://www.w3.org/2000/svg" width="523.59" height="128.25"><path fill="#1A1A1A" d="M223.9 46.171l.001-.005-3.352 11.88 3.351-11.875z"/><path fill="#1A1A1A" d="M241.14 71.962l-3.694-.022 3.694.022z"/><path fill="#1A1A1A" d="M240.19 89.703h.004l-22.131.08 22.127-.08z"/><path fill="#1A1A1A" d="M244.83 71.984l-3.695-.022 3.695.022z"/><path fill="#1A1A1A" d="M242.13 88.195l3.855-14.702-3.855 14.705v-.003z"/><path fill="#1A1A1A" d="M323.609 20.49l-7.181 33.76 7.181-33.76z"/><path fill="#1A1A1A" d="M305.15 20.49l-5.452 25.22 5.452-25.222v.002z"/><path fill="#1A1A1A" d="M322.38 18.971h-15.356c-.852 0-1.697.684-1.879 1.516l-5.452 25.222-5.452 25.223c-.18.832-1.025 1.514-1.877 1.514h-10.869c-10.753 0-9.51-7.438-7.307-17.627l.065-.308.241-1.284.046-.242.491-2.615.525-2.803c.16-.845.402-2.08.562-2.856l2.478-12.109 2.48-12.109c.172-.835-.388-1.521-1.24-1.521h-15.762c-.852 0-1.695.686-1.87 1.519l-3.389 16.079-3.389 16.077-.005.024-.315 1.494c-3.904 17.822-2.869 34.817 18.347 35.349l.615.013h33.302c.853 0 1.695-.685 1.874-1.519l7.182-33.757 7.181-33.76c.178-.836-.375-1.519-1.227-1.52z"/><path fill="#1A1A1A" d="M383.641 72.621c.853 0 1.41.684 1.24 1.519l-1.492 7.288"/><path fill="#1A1A1A" d="M381.9 88.719l1.49-7.292-1.492 7.294.002-.002z"/><path fill="#1A1A1A" d="M380.029 90.253l.008-.002c-4.52.036-18.1.14-28.307.14 12.422 0 28.299-.137 28.299-.138z"/><path fill="#1A1A1A" d="M342.57 63.234c-.013-.798.896-2.173 1.749-2.173l-1.918-.032c-.864 8.692.169 2.205.169 2.205z"/><path fill="#1A1A1A" d="M353.13 90.387l-.296.002.296-.002z"/><path fill="#1A1A1A" d="M383.641 72.621c.853 0 1.41.684 1.24 1.519l-1.492 7.288-.243 1.188"/><path fill="#1A1A1A" d="M360.4 90.37h0z"/><path fill="#1A1A1A" d="M356.63 90.382h0z"/><path fill="#1A1A1A" d="M355.48 90.385l-.361.002.361-.002z"/><path fill="#1A1A1A" d="M354.311 90.387h0z"/><path fill="#1A1A1A" d="M356.41 90.382l-.93.002.93-.002z"/><path fill="#1A1A1A" d="M360.34 90.37l-3.705.013c1.222-.002 2.464-.008 3.705-.013z"/><path fill="#1A1A1A" d="M380.04 90.25c-3.312.027-11.489.088-19.646.119 8.153-.029 16.333-.092 19.646-.119z"/><path fill="#1A1A1A" d="M381.9 88.723l1.248-6.106-1.25 6.11.002-.004z"/><path fill="#1A1A1A" d="M355.12 90.387h0z"/><path fill="#1A1A1A" d="M352.83 90.389h0z"/><path fill="#1A1A1A" d="M353.99 90.387h0z"/><path fill="#1A1A1A" d="M129.36 63.417l2.385-10.574-2.727 12.087-2.617 12.312 2.294-10.793c.177-.835.477-2.199.665-3.032z"/><path fill="#1A1A1A" d="M157.91 18.793h-16.864c-.853 0-1.704.681-1.895 1.511l-1.599 7.058-1.599 7.061c-.188.83.355 1.511 1.208 1.511h16.995c.852 0 1.699-.681 1.882-1.514l1.545-7.058 1.545-7.053v-.002c.184-.832-.364-1.514-1.218-1.514z"/><path fill="#1A1A1A" d="M154.24 42.272v-.002l-4.946 22.882 4.946-22.88z"/><path fill="#1A1A1A" d="M105.25 118.09s8.501.109 13.905.109c-4.105 0-10.885-.075-13.912-.111l.007.002z"/><path fill="#1A1A1A" d="M134.13 42.269l-2.388 10.574 2.388-10.574z"/><path fill="#1A1A1A" d="M153.02 40.756h-16.997c-.852 0-1.704.681-1.892 1.514l-2.388 10.574-2.385 10.574c-.188.832-.488 2.197-.665 3.031l-2.294 10.794-2.292 10.793c-.178.832-.544 2.178-.818 2.985 0 0-3.175 9.448-8.513 9.341l-.667-.013c-2.586-.049-4.619-.085-4.619-.085h-.004c-.851-.013-1.707.651-1.905 1.479l-1.763 7.41-1.761 7.406c-.198.828.337 1.512 1.184 1.526 3.028.036 9.807.112 13.912.112 13.334 0 20.363-7.388 24.869-28.646l5.273-24.399 4.946-22.883c.18-.831-.37-1.513-1.221-1.513z"/><path fill="#1A1A1A" d="M394.471 89.525c-.853 0-1.406-.684-1.227-1.52l12.786-59.89"/><path fill="#1A1A1A" d="M412.24 88.004l5.171-25.562-5.171 25.562z"/><path fill="#1A1A1A" d="M393.43 88.766c-.104-.417-.043-1.439.139-2.275l6.067-28.428-6.393 29.944c-.179.835.374 1.519 1.226 1.519h1.553c-.854-.001-2.489-.342-2.592-.76z"/><path fill="#1A1A1A" d="M411.23 89.184c-.464.188-1.543.342-2.396.342h1.553c.852 0 1.689-.684 1.857-1.521l.308-1.519c-.169.834-.857 2.509-1.322 2.698z"/><path fill="#1A1A1A" d="M414.83 75.223l2.282-11.282-.004.022-2.278 11.26z"/><path fill="#1A1A1A" d="M465.28 32.128l.704 2.91c.194.833-.345 1.509-1.195 1.511"/><path fill="#1A1A1A" d="M412.55 86.486l2.276-11.262-2.276 11.262z"/><path fill="#1A1A1A" d="M464.58 29.147l.697 2.981-.697-2.981z"/><path fill="#1A1A1A" d="M417.11 63.942c.169-.835.45-2.188.627-3.015l2.438-11.421-2.761 12.937-.304 1.499z"/><path fill="#1A1A1A" d="M406.24 27.135l-.531 2.498-6.068 28.43 6.393-29.946.206-.982z"/><path fill="#1A1A1A" d="M465.98 35.038l-.705-2.91-.696-2.981-.354-1.509c-1.38-5.364-5.434-8.459-14.232-8.459l-13.7-.015-12.617-.015h-14.196c-.853 0-1.696.681-1.872 1.516h-.001l-.627 2.966-.741 3.503-.206.981-6.393 29.946-6.068 28.428c-.181.836-.241 1.858-.138 2.275.102.418 1.738.76 2.591.76h12.809c.853 0 1.932-.154 2.396-.342.466-.188 1.152-1.863 1.322-2.698l2.276-11.262 2.279-11.26.004-.022.304-1.499 2.762-12.937 2.438-11.426c.181-.83 1.021-1.509 1.872-1.511l40.3-.02c.85 0 1.388-.677 1.193-1.509z"/><path fill="#1A1A1A" d="M517.86 8.725c-.854.006-2.249.011-3.103.011h-12.898c-.854 0-1.946.576-2.427 1.28l-28.523 41.787c-.482.706-1.031.601-1.221-.229l-2.099-9.207c-.188-.833-1.043-1.511-1.896-1.511h-18.337c-.854 0-1.358.669-1.125 1.489l8.216 28.784c.234.82.252 2.168.041 2.994l-3.582 13.931c-.212.827.312 1.504 1.166 1.504h18.123c.852 0 1.724-.677 1.935-1.504l3.583-13.931c.211-.826.805-2.061 1.318-2.742l46.306-61.459c.515-.681.236-1.235-.616-1.229l-4.861.032z"/><path fill="#1A1A1A" d="M372.18 44.774v-.017c-.107.925-.961 1.604-1.813 1.604h-23.248c-.804 0-1.212-.547-1.094-1.221l.022-.054-.016.007.014-.078.105-.396c2.221-5.903 6.743-9.778 15.243-9.778 9.57.001 11.437 4.677 10.787 9.933zm-6.821-26.834c-29.84 0-36.912 18.113-40.879 36.394-3.967 18.633-3.625 36.055 27.254 36.055h1.096l.295-.002h1.992l.361-.002.931-.002h.219l3.704-.012h.062c8.156-.032 16.334-.094 19.647-.12.847-.013 1.676-.696 1.851-1.523l1.25-6.11.242-1.189 1.492-7.287c.171-.836-.387-1.52-1.24-1.52h-27.761c-11.041 0-14.32-2.934-13.112-11.56h44.377l-.004.005.031-.005c.705-.013 1.357-.498 1.615-1.145.049-.125.091-.254.107-.388l-.005.005c6.589-24.854 4.7-41.592-23.528-41.592l.003-.002z"/><path fill="#1A1A1A" d="M224.32 44.679l-.42 1.487-.001.005-3.351 11.875-3.35 11.873c-.232.82-1.118 1.491-1.973 1.491h-17.735c-13.453 0-16.729-10.521-13.453-26.042 3.275-15.874 9.697-25.742 22.938-26.741 18.094-1.364 21.714 11.362 17.345 26.052zm12.163 25.818s8.362-20.303 10.261-32.031c2.59-15.699-5.27-38.466-35.63-38.466-30.187 0-43.295 21.737-48.297 45.367-5.001 23.801 1.552 44.675 31.567 44.504l23.679-.088 22.131-.08c.852-.008 1.724-.684 1.941-1.507l3.855-14.705c.215-.825-.306-1.504-1.158-1.509l-3.695-.021-3.694-.022c-.725-.005-1.14-.474-1.052-1.097.016-.111.042-.227.09-.346l.002.001z"/><path fill="#1A1A1A" d="M385.92 56.908c0 .562-.455 1.018-1.018 1.018s-1.019-.457-1.019-1.018.456-1.016 1.019-1.016 1.018.455 1.018 1.016z"/><path fill="#535353" d="M5.979 30.509c-8.335 11.98-7.297 27.566-.93 40.296l.466.905.298.573.186.33.332.594c.198.349.4.695.608 1.042l.347.571c.229.371.465.737.706 1.104l.3.464c.332.495.671.989 1.021 1.475l.029.039.172.231c.303.418.615.83.931 1.238l.351.446c.282.354.569.706.86 1.058l.329.393c.392.461.791.92 1.199 1.369l.024.025.046.051c.398.435.806.859 1.218 1.284l.391.394c.32.322.645.639.973.954l.398.378c.438.413.881.818 1.333 1.214l.021.017.232.198c.398.345.803.687 1.211 1.022l.501.4c.333.267.67.53 1.01.789l.54.41c.375.275.752.547 1.133.812l.413.293.113.081c.361.249.731.488 1.1.728l.476.317c.566.358 1.141.713 1.722 1.055l.476.269c.427.247.857.488 1.292.726l.715.368.925.48.214.104.378.183c.484.231.973.459 1.466.679l.31.139c.565.247 1.135.484 1.71.711l.417.164c.532.205 1.072.407 1.614.598l.203.07c.594.208 1.195.4 1.799.589l.435.13c.615.186 1.223.407 1.858.524 40.31 7.351 52.019-24.224 52.019-24.224-9.835 12.811-27.29 16.191-43.829 12.428-.626-.142-1.234-.337-1.846-.518l-.46-.14c-.597-.183-1.189-.375-1.777-.578l-.244-.088c-.527-.186-1.048-.381-1.567-.581l-.439-.173c-.569-.225-1.134-.459-1.692-.703l-.338-.149c-.48-.218-.955-.437-1.427-.664l-.413-.198c-.371-.181-.738-.373-1.104-.562l-.737-.386c-.447-.239-.886-.488-1.323-.742l-.447-.249c-.581-.342-1.155-.696-1.723-1.056l-.465-.31c-.412-.266-.822-.536-1.226-.815l-.395-.277c-.39-.275-.776-.555-1.159-.838l-.514-.389c-.351-.269-.7-.539-1.046-.817l-.466-.374c-.439-.361-.874-.725-1.303-1.098l-.143-.12c-.464-.407-.919-.825-1.37-1.245l-.386-.371c-.333-.317-.662-.637-.984-.965l-.386-.385c-.41-.42-.813-.846-1.208-1.277l-.06-.063c-.417-.456-.825-.923-1.225-1.394l-.321-.381c-.298-.359-.593-.723-.881-1.09l-.323-.402c-.347-.45-.686-.899-1.018-1.355-9.182-12.524-12.481-29.8-5.142-43.987"/><path fill="#535353" d="M31.852 20.416c-6.028 8.674-5.701 20.286-.999 29.46.789 1.538 1.675 3.03 2.666 4.451.903 1.294 1.904 2.834 3.103 3.875.435.479.889.945 1.353 1.404l.356.352c.45.437.908.867 1.382 1.284l.056.049.013.013c.523.459 1.064.901 1.614 1.335l.366.286c.551.422 1.112.837 1.688 1.233l.049.037.77.508.365.241c.411.264.828.521 1.251.767l.177.103c.365.21.735.417 1.106.618l.393.205.774.4.117.053c.531.262 1.067.514 1.614.752l.356.146c.437.186.879.367 1.323.537l.566.208c.403.149.807.286 1.215.423l.549.176c.58.18 1.152.407 1.756.508 31.123 5.156 38.308-18.807 38.308-18.807-6.477 9.329-19.02 13.779-32.405 10.305-.595-.156-1.181-.327-1.763-.51l-.53-.171c-.414-.134-.825-.276-1.233-.425l-.557-.208c-.447-.171-.889-.349-1.327-.535l-.357-.151c-.549-.239-1.09-.491-1.624-.754l-.814-.415-.47-.242c-.347-.188-.691-.383-1.03-.581l-.247-.139c-.421-.247-.836-.5-1.248-.762l-.376-.251-.808-.535c-.574-.396-1.132-.811-1.682-1.23l-.378-.298c-5.859-4.626-10.503-10.947-12.711-18.115-2.314-7.434-1.815-15.779 2.194-22.551"/><path fill="#535353" d="M53.613 12.875c-3.553 5.229-3.902 11.724-1.437 17.5 2.6 6.13 7.928 10.94 14.147 13.22l.772.269.341.107c.366.115.73.249 1.108.32 17.185 3.32 21.846-8.819 23.087-10.605-4.083 5.879-10.945 7.29-19.364 5.247-.665-.162-1.396-.402-2.037-.629-.822-.293-1.632-.627-2.419-1.005-1.495-.718-2.92-1.59-4.241-2.588-7.534-5.716-12.214-16.621-7.298-25.502"/></svg>