<?xml version="1.0" encoding="utf-8"?>
<!-- Generator: Adobe Illustrator 16.0.4, SVG Export Plug-In . SVG Version: 6.00 Build 0)  -->
<!DOCTYPE svg PUBLIC "-//W3C//DTD SVG 1.1//EN" "http://www.w3.org/Graphics/SVG/1.1/DTD/svg11.dtd">
<svg version="1.1" id="Layer_1" xmlns="http://www.w3.org/2000/svg" xmlns:xlink="http://www.w3.org/1999/xlink" x="0px" y="0px"
	 width="612px" height="792px" viewBox="0 0 612 792" enable-background="new 0 0 612 792" xml:space="preserve">
<path fill="#B2B2B2" d="M328.688,235L246,264.1l13.066,108.335l69.71,38.314l70.069-38.834l13.062-108.331L328.688,235z
	 M328.688,235"/>
<path fill="#575757" d="M403.66,269.846l-75.164-25.631v157.381l62.99-34.861L403.66,269.846z M403.66,269.846"/>
<path fill="#676767" d="M255.279,270.308l11.196,96.889l62.019,34.398V244.211L255.279,270.308z M255.279,270.308"/>
<path fill="#F2F2F2" d="M345.918,322.493l-17.285-36.097l-15.218,36.097H345.918z M352.508,337.672h-45.819l-10.251,25.64
	l-19.067,0.352l51.125-113.734l52.908,113.734H363.73L352.508,337.672z M352.508,337.672"/>
<path fill="#B2B2B2" d="M328.496,249.929l0.136,36.467l17.268,36.125h-17.365l-0.038,15.127l24.012,0.023l11.223,25.996
	l18.244,0.339L328.496,249.929z M328.496,249.929"/>
</svg>
